<mxfile host="65bd71144e">
    <diagram id="AKqgPl6uQqIBeK5dkgQo" name="Page-1">
        <mxGraphModel dx="577" dy="535" grid="1" gridSize="10" guides="1" tooltips="1" connect="1" arrows="1" fold="1" page="1" pageScale="1" pageWidth="827" pageHeight="1169" math="0" shadow="0">
            <root>
                <mxCell id="0"/>
                <mxCell id="1" parent="0"/>
                <mxCell id="2" value="http://ics2o.mths.ca" style="swimlane;whiteSpace=wrap;html=1;" vertex="1" parent="1">
                    <mxGeometry x="50" y="30" width="530" height="530" as="geometry"/>
                </mxCell>
                <mxCell id="3" value="Burger order" style="text;html=1;align=center;verticalAlign=middle;resizable=0;points=[];autosize=1;strokeColor=none;fillColor=none;fontSize=21;" vertex="1" parent="2">
                    <mxGeometry x="310" y="35" width="140" height="40" as="geometry"/>
                </mxCell>
                <mxCell id="4" value="&lt;div style=&quot;font-size: 14px;&quot;&gt;&lt;div style=&quot;text-align: left;&quot;&gt;Buns and pattys cost $0.50 each. Other toppings cost $0.25 each.&amp;nbsp;&lt;/div&gt;&lt;div style=&quot;text-align: left;&quot;&gt;The base cost of a burger is $5.00&lt;/div&gt;&lt;/div&gt;" style="text;html=1;align=center;verticalAlign=middle;resizable=0;points=[];autosize=1;strokeColor=none;fillColor=none;fontSize=14;" vertex="1" parent="2">
                    <mxGeometry y="70" width="440" height="50" as="geometry"/>
                </mxCell>
                <mxCell id="11" value="&lt;div&gt;Choose a bun&lt;/div&gt;&lt;div&gt;Normal Bun&amp;nbsp; &amp;nbsp; &amp;nbsp; &amp;nbsp;Seeded Bun&lt;/div&gt;&lt;div&gt;&lt;br&gt;&lt;/div&gt;&lt;div&gt;Choose a patty&lt;/div&gt;&lt;div&gt;One Patty&amp;nbsp; &amp;nbsp; &amp;nbsp; &amp;nbsp; &amp;nbsp; Two Pattys&lt;/div&gt;&lt;div&gt;&lt;br&gt;&lt;/div&gt;&lt;div&gt;Add tomato&lt;/div&gt;&lt;div&gt;No Tomato&amp;nbsp; &amp;nbsp; &amp;nbsp; &amp;nbsp; &amp;nbsp; &amp;nbsp;Tomato&lt;/div&gt;&lt;div&gt;&lt;br&gt;&lt;/div&gt;&lt;div&gt;Add lettuce&lt;/div&gt;&lt;div&gt;No Lettuce&amp;nbsp; &amp;nbsp; &amp;nbsp; &amp;nbsp; &amp;nbsp; &amp;nbsp; Lettuce&lt;/div&gt;&lt;div&gt;&lt;br&gt;&lt;/div&gt;&lt;div&gt;Add bacon&lt;/div&gt;&lt;div&gt;No Bacon&amp;nbsp; &amp;nbsp; &amp;nbsp; &amp;nbsp; &amp;nbsp; &amp;nbsp; &amp;nbsp; Bacon&lt;/div&gt;&lt;div&gt;&lt;br&gt;&lt;/div&gt;&lt;div&gt;Add ketchup&lt;/div&gt;&lt;div&gt;No Ketchup&amp;nbsp; &amp;nbsp; &amp;nbsp; &amp;nbsp; &amp;nbsp; Ketchup&lt;/div&gt;" style="text;html=1;align=center;verticalAlign=middle;resizable=0;points=[];autosize=1;strokeColor=none;fillColor=none;fontSize=14;" vertex="1" parent="2">
                    <mxGeometry x="40" y="120" width="200" height="300" as="geometry"/>
                </mxCell>
                <mxCell id="12" value="" style="ellipse;whiteSpace=wrap;html=1;aspect=fixed;fontSize=14;" vertex="1" parent="2">
                    <mxGeometry x="133" y="145" width="15" height="15" as="geometry"/>
                </mxCell>
                <mxCell id="15" value="" style="ellipse;whiteSpace=wrap;html=1;aspect=fixed;fontSize=14;" vertex="1" parent="2">
                    <mxGeometry x="30" y="145" width="15" height="15" as="geometry"/>
                </mxCell>
                <mxCell id="16" value="" style="ellipse;whiteSpace=wrap;html=1;aspect=fixed;fontSize=14;" vertex="1" parent="2">
                    <mxGeometry x="36" y="195" width="15" height="15" as="geometry"/>
                </mxCell>
                <mxCell id="17" value="" style="ellipse;whiteSpace=wrap;html=1;aspect=fixed;fontSize=14;" vertex="1" parent="2">
                    <mxGeometry x="138" y="195" width="15" height="15" as="geometry"/>
                </mxCell>
                <mxCell id="18" value="" style="ellipse;whiteSpace=wrap;html=1;aspect=fixed;fontSize=14;" vertex="1" parent="2">
                    <mxGeometry x="39" y="245" width="15" height="15" as="geometry"/>
                </mxCell>
                <mxCell id="19" value="" style="ellipse;whiteSpace=wrap;html=1;aspect=fixed;fontSize=14;" vertex="1" parent="2">
                    <mxGeometry x="152" y="245" width="15" height="15" as="geometry"/>
                </mxCell>
                <mxCell id="20" value="" style="ellipse;whiteSpace=wrap;html=1;aspect=fixed;fontSize=14;" vertex="1" parent="2">
                    <mxGeometry x="40" y="295" width="15" height="15" as="geometry"/>
                </mxCell>
                <mxCell id="21" value="" style="ellipse;whiteSpace=wrap;html=1;aspect=fixed;fontSize=14;" vertex="1" parent="2">
                    <mxGeometry x="155" y="295" width="15" height="15" as="geometry"/>
                </mxCell>
                <mxCell id="22" value="" style="ellipse;whiteSpace=wrap;html=1;aspect=fixed;fontSize=14;" vertex="1" parent="2">
                    <mxGeometry x="43" y="346" width="15" height="15" as="geometry"/>
                </mxCell>
                <mxCell id="23" value="" style="ellipse;whiteSpace=wrap;html=1;aspect=fixed;fontSize=14;" vertex="1" parent="2">
                    <mxGeometry x="158" y="346" width="15" height="15" as="geometry"/>
                </mxCell>
                <mxCell id="24" value="" style="ellipse;whiteSpace=wrap;html=1;aspect=fixed;fontSize=14;" vertex="1" parent="2">
                    <mxGeometry x="36" y="395" width="15" height="15" as="geometry"/>
                </mxCell>
                <mxCell id="25" value="" style="ellipse;whiteSpace=wrap;html=1;aspect=fixed;fontSize=14;" vertex="1" parent="2">
                    <mxGeometry x="150" y="395" width="15" height="15" as="geometry"/>
                </mxCell>
                <mxCell id="26" value="Calculate Price" style="rounded=0;whiteSpace=wrap;html=1;fontSize=14;" vertex="1" parent="2">
                    <mxGeometry x="43" y="426" width="120" height="30" as="geometry"/>
                </mxCell>
                <mxCell id="27" value="Total + Tax:" style="text;html=1;align=center;verticalAlign=middle;resizable=0;points=[];autosize=1;strokeColor=none;fillColor=none;fontSize=14;" vertex="1" parent="2">
                    <mxGeometry x="39" y="470" width="90" height="30" as="geometry"/>
                </mxCell>
                <mxCell id="28" value="Ex. $7.91" style="text;html=1;align=center;verticalAlign=middle;resizable=0;points=[];autosize=1;strokeColor=none;fillColor=none;fontSize=14;" vertex="1" parent="2">
                    <mxGeometry x="43" y="500" width="80" height="30" as="geometry"/>
                </mxCell>
            </root>
        </mxGraphModel>
    </diagram>
</mxfile>